<svg xmlns="http://www.w3.org/2000/svg" xmlns:svg="http://www.w3.org/2000/svg" id="svg4264" width="16" height="14" version="1.1" viewBox="0 0 16 14"><metadata id="metadata4269"/><g id="layer1" transform="translate(0,-1038.3621)"><rect id="rect4151" width="16" height=".75" x="0" y="1039.362" fill="#fff" fill-opacity="1" stroke="none" stroke-dasharray="none" stroke-linecap="round" stroke-linejoin="miter" stroke-miterlimit="4" stroke-opacity="1" stroke-width="1.5" opacity="1"/><path id="path4150" fill="#fff" fill-opacity="1" fill-rule="nonzero" stroke="none" stroke-dasharray="none" stroke-dashoffset="0" stroke-linecap="butt" stroke-linejoin="miter" stroke-miterlimit="4" stroke-opacity="1" stroke-width="1.5" d="m 7.385014,1038.3621 -4.135014,2.55 0,1.5078 1.6835938,1.1914 -4.6835938,0 0,6.5 15.5,0 0,-6.5 -4.658203,0 1.685547,-1.1894 0,-1.5117 -4.1435845,-2.5481 z" baseline-shift="baseline" clip-rule="nonzero" color="#000" color-interpolation="sRGB" color-interpolation-filters="linearRGB" color-rendering="auto" direction="ltr" display="inline" enable-background="accumulate" font-family="sans-serif" font-size="medium" font-stretch="normal" font-style="normal" font-variant="normal" font-weight="normal" image-rendering="auto" letter-spacing="normal" opacity="1" overflow="visible" shape-rendering="auto" text-anchor="start" text-decoration="none" text-rendering="auto" visibility="visible" word-spacing="normal" writing-mode="lr-tb" style="line-height:normal;text-indent:0;text-align:start;text-decoration-line:none;text-decoration-style:solid;text-decoration-color:#000;text-transform:none;block-progression:tb;white-space:normal;isolation:auto;mix-blend-mode:normal;solid-color:#000;solid-opacity:1"/><g id="g4158" transform="translate(1.0000002,4.0526009e-5)"><circle id="circle4142" cx="2" cy="1050.362" r="1" fill="none" fill-opacity="1" stroke="#fff" stroke-dasharray="none" stroke-linecap="round" stroke-linejoin="round" stroke-miterlimit="4" stroke-opacity="1" stroke-width="1.5" opacity="1"/><circle id="path4139" cx="2" cy="1050.362" r="1" fill="#000" fill-opacity="1" stroke="none" stroke-dasharray="none" stroke-linecap="round" stroke-linejoin="round" stroke-miterlimit="4" stroke-opacity="1" stroke-width=".3" opacity="1"/></g><g id="g4170" transform="translate(-1.0000004,4.0526009e-5)"><circle id="circle4144" cx="14" cy="1050.362" r="1" fill="none" fill-opacity="1" stroke="#fff" stroke-dasharray="none" stroke-linecap="round" stroke-linejoin="round" stroke-miterlimit="4" stroke-opacity="1" stroke-width="1.5" opacity="1"/><circle id="path4139-6" cx="14" cy="1050.362" r="1" fill="#000" fill-opacity="1" stroke="none" stroke-dasharray="none" stroke-linecap="round" stroke-linejoin="round" stroke-miterlimit="4" stroke-opacity="1" stroke-width=".3" opacity="1"/></g><g id="g4162"><circle id="circle4146" cx="6" cy="1050.362" r="1" fill="none" fill-opacity="1" stroke="#fff" stroke-dasharray="none" stroke-linecap="round" stroke-linejoin="round" stroke-miterlimit="4" stroke-opacity="1" stroke-width="1.5" opacity="1"/><circle id="path4139-67" cx="6" cy="1050.362" r="1" fill="#000" fill-opacity="1" stroke="none" stroke-dasharray="none" stroke-linecap="round" stroke-linejoin="round" stroke-miterlimit="4" stroke-opacity="1" stroke-width=".3" opacity="1"/></g><g id="g4166"><circle id="circle4148" cx="10" cy="1050.362" r="1" fill="none" fill-opacity="1" stroke="#fff" stroke-dasharray="none" stroke-linecap="round" stroke-linejoin="round" stroke-miterlimit="4" stroke-opacity="1" stroke-width="1.5" opacity="1"/><circle id="path4139-4" cx="10" cy="1050.362" r="1" fill="#000" fill-opacity="1" stroke="none" stroke-dasharray="none" stroke-linecap="round" stroke-linejoin="round" stroke-miterlimit="4" stroke-opacity="1" stroke-width=".3" opacity="1"/></g><path id="path12" d="m 7.9999765,1038.8578 -3.9990404,2.4716 0,0.7032 3.2943677,2.3295 -6.29530391,0 2.1e-7,5 14.0000019,0 0,-5 -6.2720885,0 3.3003035,-2.3295 0,-0.7032 -4.0282162,-2.4716 z m 0,0.9769 3.1212235,1.8482 -3.1066352,2.1858 -3.0984311,-2.1858 z m -5.9999763,5.5274 2.0000003,0 0,3 -2.0000003,0 z m 3.0000001,0 2.5000003,0 0,1.624 -2.5000003,0 z m 3.507813,0 2.5179447,0 0,1.62 -2.5179447,0 z m 3.4921877,0 2.000001,0 0,3 -2.000001,0 z"/><rect id="rect4179" width="16" height="1" x="0" y="1038.362" fill="#666" fill-opacity="1" stroke="none" stroke-dasharray="none" stroke-linecap="round" stroke-linejoin="miter" stroke-miterlimit="4" stroke-opacity="1" stroke-width="1.5" opacity="1"/></g></svg>