<svg xmlns="http://www.w3.org/2000/svg" xmlns:svg="http://www.w3.org/2000/svg" id="svg3850" width="6" height="16" version="1.1"><metadata id="metadata3855"/><g id="layer1" transform="translate(0,-1036.3622)"><g id="g3927" transform="translate(0,1.7382813e-5)"><rect id="rect3804" width="6" height="16" x="0" y="1036.362" fill="#000" fill-opacity="1" stroke="none" ry="2"/><path id="path3024" fill="red" fill-opacity="1" stroke="#b20505" stroke-dasharray="none" stroke-miterlimit="4" stroke-opacity="1" stroke-width=".2" d="m 640,709.36218 a 2,2 0 1 1 -4,0 2,2 0 1 1 4,0 z" transform="matrix(1.0952381,0,0,1.0952381,-695.7619,262.44169)"/><path id="path3796" fill="#ff0" fill-opacity="1" stroke="#ffd600" stroke-dasharray="none" stroke-linecap="square" stroke-linejoin="miter" stroke-miterlimit="4" stroke-opacity="1" stroke-width=".2" d="m 640,714.36218 a 2,2 0 1 1 -4,0 2,2 0 1 1 4,0 z" transform="matrix(1.0952381,0,0,1.0952381,-695.7619,261.9655)"/><path id="path3798" fill="#0f0" fill-opacity="1" stroke="#00b200" stroke-dasharray="none" stroke-linecap="square" stroke-linejoin="miter" stroke-miterlimit="4" stroke-opacity="1" stroke-width=".2" d="m 640,719.36218 a 2,2 0 1 1 -4,0 2,2 0 1 1 4,0 z" transform="matrix(1.0952381,0,0,1.0952381,-695.76189,261.48932)"/></g></g></svg>