<svg xmlns="http://www.w3.org/2000/svg" xmlns:svg="http://www.w3.org/2000/svg" id="svg2" width="20" height="20" version="1.1" viewBox="0 0 20 20"><metadata id="metadata7"/><g id="layer1" transform="translate(-420,-562.3622)"><rect id="rect4145" width="18" height="9" x="421" y="573.362" fill="#fff" fill-opacity="1" stroke="none" stroke-dasharray="none" stroke-dashoffset=".6" stroke-linecap="round" stroke-linejoin="miter" stroke-miterlimit="4" stroke-opacity="1" stroke-width="1" opacity="1"/><path id="path4140-6" fill="#999" fill-opacity="1" stroke="none" stroke-dasharray="none" stroke-dashoffset=".6" stroke-linecap="round" stroke-linejoin="miter" stroke-miterlimit="4" stroke-opacity="1" stroke-width="1" d="m -420.03125,-570.36218 a 9.96875,7.8437848 0 0 1 -4.98438,6.79291 9.96875,7.8437848 0 0 1 -9.96875,0 9.96875,7.8437848 0 0 1 -4.98437,-6.79291 l 9.96875,0 z" opacity="1" transform="scale(-1,-1)"/><rect id="rect4142-0" width="1" height="12" x="420" y="570.362" fill="#999" fill-opacity="1" stroke="none" stroke-dasharray="none" stroke-dashoffset=".6" stroke-linecap="round" stroke-linejoin="miter" stroke-miterlimit="4" stroke-opacity="1" stroke-width="1" opacity="1"/><rect id="rect4144-4" width="1" height="12" x="439" y="570.362" fill="#999" fill-opacity="1" stroke="none" stroke-dasharray="none" stroke-dashoffset=".6" stroke-linecap="round" stroke-linejoin="miter" stroke-miterlimit="4" stroke-opacity="1" stroke-width="1" opacity="1"/><path id="rect4152-0" fill="#000" fill-opacity="1" stroke="none" stroke-dasharray="none" stroke-linecap="round" stroke-linejoin="round" stroke-miterlimit="4" stroke-opacity="1" stroke-width=".3" d="m 423.28901,572.36219 c -0.72191,0 -1.26909,0.6466 -1.26909,1.50213 l 0,6.00855 c 0,0.92531 0.49433,1.50213 1.26909,1.50213 l 4.44189,0 c 0.79579,0 1.2691,-0.54363 1.2691,-1.50213 l 0,-6.00855 c 0,-0.85553 -0.54718,-1.50213 -1.2691,-1.50213 z" opacity="1"/><rect id="rect4152-9-3" width="5.711" height="2.914" x="422.655" y="-576.276" fill="#fff" fill-opacity="1" stroke="none" stroke-dasharray="none" stroke-linecap="round" stroke-linejoin="round" stroke-miterlimit="4" stroke-opacity="1" stroke-width=".3" opacity="1" rx=".635" ry=".728" transform="scale(1,-1)"/><ellipse id="path4177-4" cx="423.632" cy="-578.898" fill="#fff" fill-opacity="1" stroke="none" stroke-dasharray="none" stroke-linecap="round" stroke-linejoin="round" stroke-miterlimit="4" stroke-opacity="1" stroke-width=".3" opacity="1" rx=".977" ry="1.02" transform="scale(1,-1)"/><ellipse id="path4177-6-5" cx="427.463" cy="-578.898" fill="#fff" fill-opacity="1" stroke="none" stroke-dasharray="none" stroke-linecap="round" stroke-linejoin="round" stroke-miterlimit="4" stroke-opacity="1" stroke-width=".3" opacity="1" rx=".977" ry="1.02" transform="scale(1,-1)"/><path id="rect4152-0-3" fill="#000" fill-opacity="1" stroke="none" stroke-dasharray="none" stroke-linecap="round" stroke-linejoin="round" stroke-miterlimit="4" stroke-opacity="1" stroke-width=".3" d="m 432.27272,572.36219 c -0.72398,0 -1.27272,0.64597 -1.27272,1.50068 l 0,6.00268 c 0,0.92441 0.49574,1.50066 1.27272,1.50066 l 4.45455,0 c 0.79806,0 1.27273,-0.54311 1.27273,-1.50066 l 0,-6.00268 c 0,-0.85471 -0.54874,-1.50068 -1.27273,-1.50068 z" opacity="1"/><rect id="rect4152-9-3-4" width="5.727" height="2.911" x="431.636" y="-576.273" fill="#fff" fill-opacity="1" stroke="none" stroke-dasharray="none" stroke-linecap="round" stroke-linejoin="round" stroke-miterlimit="4" stroke-opacity="1" stroke-width=".3" opacity="1" rx=".636" ry=".728" transform="scale(1,-1)"/><ellipse id="path4177-4-6" cx="432.616" cy="-578.892" fill="#fff" fill-opacity="1" stroke="none" stroke-dasharray="none" stroke-linecap="round" stroke-linejoin="round" stroke-miterlimit="4" stroke-opacity="1" stroke-width=".3" opacity="1" rx=".98" ry="1.019" transform="scale(1,-1)"/><ellipse id="path4177-6-5-6" cx="436.458" cy="-578.892" fill="#fff" fill-opacity="1" stroke="none" stroke-dasharray="none" stroke-linecap="round" stroke-linejoin="round" stroke-miterlimit="4" stroke-opacity="1" stroke-width=".3" opacity="1" rx=".98" ry="1.019" transform="scale(1,-1)"/></g></svg>