<svg xmlns="http://www.w3.org/2000/svg" id="svg4264" width="20" height="20" version="1.1" viewBox="0 0 20 20"><metadata id="metadata4269"/><g id="layer1" transform="translate(0,-1032.3621)"><path id="path4146" fill="#fff" fill-opacity="1" stroke="#fff" stroke-dasharray="none" stroke-linecap="round" stroke-linejoin="round" stroke-miterlimit="4" stroke-opacity="1" stroke-width="1.875" d="m 5.4708478,1033.2996 c -1.715101,0 -2.9708541,0.6807 -2.9708541,2.4952 l 2.5e-6,15.3173 13.7499798,0 1e-6,-15.3173 c 0,-1.6777 -1.294814,-2.4952 -2.970854,-2.4952 z" opacity="1"/><path id="rect4152-0" fill="#000" fill-opacity="1" stroke="none" stroke-dasharray="none" stroke-linecap="round" stroke-linejoin="round" stroke-miterlimit="4" stroke-opacity="1" stroke-width=".3" d="m 5.7499911,1033.6121 c -1.4221328,0 -2.4999977,1.0761 -2.4999974,2.5 l 2.3e-6,10 c 2e-7,1.54 0.973785,2.5 2.4999963,2.5 l 8.7499877,0 c 1.567642,0 2.499996,-0.9048 2.499996,-2.5 l 1e-6,-10 c 0,-1.4239 -1.077863,-2.5 -2.499997,-2.5 z" opacity="1"/><rect id="rect4152-9-3" width="11.25" height="5" x="4.5" y="-1039.862" fill="#fff" fill-opacity="1" stroke="none" stroke-dasharray="none" stroke-linecap="round" stroke-linejoin="round" stroke-miterlimit="4" stroke-opacity="1" stroke-width=".3" opacity="1" rx="1.25" ry="1.25" transform="scale(1,-1)"/><ellipse id="path4177-4" cx="5.75" cy="-1044.862" fill="#fff" fill-opacity="1" stroke="none" stroke-dasharray="none" stroke-linecap="round" stroke-linejoin="round" stroke-miterlimit="4" stroke-opacity="1" stroke-width=".3" opacity="1" rx="1.25" ry="1.25" transform="scale(1,-1)"/><ellipse id="path4177-6-5" cx="14.5" cy="-1044.862" fill="#fff" fill-opacity="1" stroke="none" stroke-dasharray="none" stroke-linecap="round" stroke-linejoin="round" stroke-miterlimit="4" stroke-opacity="1" stroke-width=".3" opacity="1" rx="1.25" ry="1.25" transform="scale(1,-1)"/><rect id="rect4249-2" width="20" height="2.5" x="0" y="1049.862" fill="#c87137" fill-opacity="1" stroke="none" stroke-dasharray="none" stroke-linecap="round" stroke-linejoin="bevel" stroke-miterlimit="4" stroke-opacity="1" stroke-width="1" opacity="1" rx="0" ry="0"/><rect id="rect4144" width="2.5" height="2.5" x="5.75" y="1048.612" fill="#000" fill-opacity="1" stroke="none" stroke-dasharray="none" stroke-dashoffset=".6" stroke-linecap="round" stroke-linejoin="miter" stroke-miterlimit="4" stroke-opacity="1" stroke-width="1" opacity="1" rx="0" ry="0"/><rect id="rect4146" width="2.5" height="2.5" x="12" y="1048.612" fill="#000" fill-opacity="1" stroke="none" stroke-dasharray="none" stroke-dashoffset=".6" stroke-linecap="round" stroke-linejoin="miter" stroke-miterlimit="4" stroke-opacity="1" stroke-width="1" opacity="1" rx="0" ry="0"/></g></svg>
