<svg xmlns="http://www.w3.org/2000/svg" xmlns:svg="http://www.w3.org/2000/svg" id="svg4264" width="20" height="20" version="1.1" viewBox="0 0 20 20"><metadata id="metadata4269"/><g id="layer1" transform="translate(0,-1032.3621)"><rect id="rect4151" width="12.661" height="1.895" x="3.867" y="1033.362" fill="#fff" fill-opacity="1" stroke="none" stroke-dasharray="none" stroke-dashoffset=".6" stroke-linecap="round" stroke-linejoin="miter" stroke-miterlimit="4" stroke-opacity="1" stroke-width="1" opacity="1"/><path id="rect4152-0-5" fill="#fff" fill-opacity="1" stroke="none" stroke-dasharray="none" stroke-linecap="round" stroke-linejoin="round" stroke-miterlimit="4" stroke-opacity="1" stroke-width=".3" d="M 4.2727261,1035.6726 C 2.4110229,1035.6726 1,1036.8849 1,1038.4882 l 0,9.8566 c 0,0.8533 0.8373582,1.4078 1.6363632,1.4078 l 0,1.6095 c 6.6713294,0 8.0559448,0 14.7272748,0 l 0,-1.6095 C 18.141227,1049.7526 19,1049.13 19,1048.3448 l 0,-9.8566 c 0,-1.6041 -1.411022,-2.8156 -3.272726,-2.8156 z" opacity="1"/><path id="rect4152-0" fill="#000" fill-opacity="1" stroke="none" stroke-dasharray="none" stroke-linecap="round" stroke-linejoin="round" stroke-miterlimit="4" stroke-opacity="1" stroke-width=".3" d="m 5.2797165,1036.8797 c -1.6005597,0 -2.8136564,0.9712 -2.8136564,2.2555 l 0,7.8958 c 0,0.6833 0.7199006,1.128 1.4068281,1.128 l 0,2.2557 2.8136577,0 1.6e-6,-2.2557 7.0341415,0 0,2.2557 2.813658,0 0,-2.2557 c 0.668517,0 1.406829,-0.4983 1.406829,-1.128 l 0,-7.8958 c 0,-1.2849 -1.213097,-2.2555 -2.813657,-2.2555 z" opacity="1"/><rect id="rect4152-9-3" width="12.661" height="4.828" x="3.873" y="-1042.913" fill="#fff" fill-opacity="1" stroke="none" stroke-dasharray="none" stroke-linecap="round" stroke-linejoin="round" stroke-miterlimit="4" stroke-opacity="1" stroke-width=".3" opacity="1" rx="1.407" ry="1.207" transform="scale(1,-1)"/><ellipse id="path4177-4" cx="5.28" cy="-1046.534" fill="#fff" fill-opacity="1" stroke="none" stroke-dasharray="none" stroke-linecap="round" stroke-linejoin="round" stroke-miterlimit="4" stroke-opacity="1" stroke-width=".3" opacity="1" rx="1.407" ry="1.207" transform="scale(1,-1)"/><ellipse id="path4177-6-5" cx="15.128" cy="-1046.534" fill="#fff" fill-opacity="1" stroke="none" stroke-dasharray="none" stroke-linecap="round" stroke-linejoin="round" stroke-miterlimit="4" stroke-opacity="1" stroke-width=".3" opacity="1" rx="1.407" ry="1.207" transform="scale(1,-1)"/><rect id="rect4141" width="10.973" height="1.207" x="4.717" y="1033.706" fill="#000" fill-opacity="1" stroke="none" stroke-dasharray="none" stroke-dashoffset=".6" stroke-linecap="round" stroke-linejoin="miter" stroke-miterlimit="4" stroke-opacity="1" stroke-width="1" opacity="1" rx="0" ry="1.207"/><rect id="rect4147" width="1.407" height="2.569" x="8.093" y="1034.309" fill="#000" fill-opacity="1" stroke="none" stroke-dasharray="none" stroke-dashoffset=".6" stroke-linecap="round" stroke-linejoin="miter" stroke-miterlimit="4" stroke-opacity="1" stroke-width="1" opacity="1" ry="0"/><rect id="rect4149" width="1.407" height="2.569" x="10.907" y="1034.309" fill="#000" fill-opacity="1" stroke="none" stroke-dasharray="none" stroke-dashoffset=".6" stroke-linecap="round" stroke-linejoin="miter" stroke-miterlimit="4" stroke-opacity="1" stroke-width="1" opacity="1" ry="0"/></g></svg>