<svg xmlns="http://www.w3.org/2000/svg" xmlns:svg="http://www.w3.org/2000/svg" id="svg4264" width="15" height="16" version="1.1" viewBox="0 0 15 16"><metadata id="metadata4269"/><g id="layer1" transform="translate(0,-1036.3621)"><rect id="rect4142" width="13" height="14" x="1" y="1037.362" fill="#fff" fill-opacity="1" stroke="none" stroke-dasharray="none" stroke-linecap="round" stroke-linejoin="miter" stroke-miterlimit="4" stroke-opacity="1" stroke-width="1" opacity="1"/><path id="rect4270-2" fill="#000" fill-opacity="1" stroke="none" stroke-dasharray="none" stroke-linecap="round" stroke-linejoin="round" stroke-miterlimit="4" stroke-opacity="1" stroke-width=".3" d="m -4.7683722e-7,1036.3621 0,16 1.00000011683722,0 0,-8 c 0,-3.96 2.86770086,-7 6.50195386,-7 3.6342575,0 6.6081755,3.04 6.4980475,7 l 0,8 1.000002,0 0,-16 z" opacity="1"/><rect id="rect4141" width="13" height="1" x="1" y="1051.362" fill="#c87137" fill-opacity="1" stroke="none" stroke-dasharray="none" stroke-linecap="round" stroke-linejoin="round" stroke-miterlimit="4" stroke-opacity="1" stroke-width=".3" opacity="1"/><path id="path4149" fill="#000" fill-opacity="1" fill-rule="nonzero" stroke="none" d="m 4.478082,1040.3621 c -1.0398063,0 -1.7546725,0.7148 -1.7546725,1.7547 l 0,6.4906 c 0,1.105 0.649877,1.7547 1.7546725,1.7547 l 6.043851,0 c 1.104774,0 1.754657,-0.6497 1.754657,-1.7547 l 0,-6.4906 c 0,-1.0399 -0.779858,-1.7547 -1.754657,-1.7547 z"/><path id="path4151" fill="#fff" fill-opacity="1" fill-rule="nonzero" stroke="none" d="m 4.478082,1044.8715 6.043851,0 c 0.454919,0 0.844848,-0.3899 0.844848,-0.9101 l 0,-1.6895 c 0,-0.5198 -0.389929,-0.9098 -0.844848,-0.9098 l -6.043851,0 c -0.5199047,0 -0.9098309,0.39 -0.9098309,0.9098 l 0,1.6895 c 0,0.5202 0.3899262,0.9101 0.9098309,0.9101 z"/><path id="path4153" fill="#fff" fill-opacity="1" fill-rule="nonzero" stroke="none" d="m 5.3229205,1047.8722 c 0,-0.455 -0.3899292,-0.845 -0.8448385,-0.845 -0.5199047,0 -0.9098309,0.39 -0.9098309,0.845 0,0.4547 0.3899262,0.8446 0.9098309,0.8446 0.4549093,0 0.8448385,-0.3899 0.8448385,-0.8446 z"/><path id="path4155" fill="#fff" fill-opacity="1" fill-rule="nonzero" stroke="none" d="m 11.366781,1047.8722 c 0,-0.455 -0.389929,-0.845 -0.844848,-0.845 -0.454906,0 -0.8448352,0.39 -0.8448352,0.845 0,0.4547 0.3899292,0.8446 0.8448352,0.8446 0.454919,0 0.844848,-0.3899 0.844848,-0.8446 z"/></g></svg>