<svg xmlns="http://www.w3.org/2000/svg" xmlns:dc="http://purl.org/dxc/elements/1.1/" xmlns:svg="http://www.w3.org/2000/svg" id="svg4264" width="20" height="20" version="1.1" viewBox="0 0 20 20"><metadata id="metadata4269"/><g id="layer1" transform="translate(0,-1032.3621)"><path id="rect4152-0-5" fill="#fff" fill-opacity="1" stroke="none" stroke-dasharray="none" stroke-linecap="round" stroke-linejoin="round" stroke-miterlimit="4" stroke-opacity="1" stroke-width=".3" d="M 3.3636355,1037.3621 C 2.019072,1037.3621 1,1038.3665 1,1039.6954 l 0,8.1667 c 0,0.707 0.6047586,1.1667 1.1818178,1.1667 l 0,2.3333 c 4.8181822,0 5.8181822,0 10.6363652,0 l 0,-2.3333 c 0.561592,0 1.181817,-0.5156 1.181817,-1.1667 l 0,-8.1667 c 0,-1.3289 -1.019072,-2.3333 -2.363636,-2.3333 z" opacity="1"/><path id="rect4152-0" fill="#000" fill-opacity="1" stroke="none" stroke-dasharray="none" stroke-linecap="round" stroke-linejoin="round" stroke-miterlimit="4" stroke-opacity="1" stroke-width=".3" d="m 4.9090878,1034.3621 c -1.6548475,0 -2.9090901,1.1479 -2.9090901,2.6667 l 0,9.3336 c 0,0.808 0.7443184,1.3334 1.4545451,1.3334 l 0,2.6667 2.9090916,0 1.5e-6,-2.6667 7.2727271,0 0,2.6667 2.909092,0 0,-2.6667 c 0.69119,0 1.454545,-0.5892 1.454545,-1.3334 l 0,-9.3336 c 0,-1.5188 -1.254243,-2.6667 -2.909092,-2.6667 z" opacity="1"/><rect id="rect4152-9-3" width="14" height="6" x="3" y="-1041.362" fill="#fff" fill-opacity="1" stroke="none" stroke-dasharray="none" stroke-linecap="round" stroke-linejoin="round" stroke-miterlimit="4" stroke-opacity="1" stroke-width=".3" opacity="1" rx="1.556" ry="1.5" transform="scale(1,-1)"/><ellipse id="path4177-4" cx="5" cy="-1044.362" fill="#fff" fill-opacity="1" stroke="none" stroke-dasharray="none" stroke-linecap="round" stroke-linejoin="round" stroke-miterlimit="4" stroke-opacity="1" stroke-width=".3" opacity="1" rx="1" ry="1" transform="scale(1,-1)"/><ellipse id="path4177-6-5" cx="15" cy="-1044.362" fill="#fff" fill-opacity="1" stroke="none" stroke-dasharray="none" stroke-linecap="round" stroke-linejoin="round" stroke-miterlimit="4" stroke-opacity="1" stroke-width=".3" opacity="1" rx="1" ry="1" transform="scale(1,-1)"/></g></svg>